<svg viewBox="0 0 23 18" fill="none" class="icon icon-project" xmlns="http://www.w3.org/2000/svg">
    <path
        d="M1.19995 7.93841C1.19995 6.71422 1.76053 5.55744 2.72137 4.79888L6.32137 1.95677C7.77461 0.809479 9.82529 0.80948 11.2785 1.95677L14.8785 4.79888C15.8394 5.55744 16.4 6.71422 16.4 7.93841V12C16.4 14.2091 14.6091 16 12.4 16H12.2C11.6477 16 11.2 15.5523 11.2 15V13.2C11.2 12.0954 10.3045 11.2 9.19995 11.2H8.39995C7.29538 11.2 6.39995 12.0954 6.39995 13.2V15C6.39995 15.5523 5.95224 16 5.39995 16H5.19995C2.99081 16 1.19995 14.2091 1.19995 12L1.19995 7.93841Z"
        stroke="#1D1D1F" stroke-width="1.5" />
    <circle cx="5" cy="5" r="5" transform="matrix(-1 0 0 1 22.1091 8)" fill="white" />
    <path d="M14.0935 13L20.0935 13" stroke="#1D1D1F" stroke-width="1.5" stroke-linecap="round"
        stroke-linejoin="round" />
    <path d="M17.0935 10V16" stroke="#1D1D1F" stroke-width="1.5" stroke-linecap="round"
        stroke-linejoin="round" />
</svg>