<svg width="30" height="30" viewBox="0 0 30 30" fill="none" xmlns="http://www.w3.org/2000/svg">
<path d="M20.5993 10.4637L15.0138 5.55395C14.7911 5.36836 14.4941 5.29412 14.2343 5.29412C13.9745 5.29412 13.6775 5.33124 13.4177 5.59107L3.9006 13.887C3.64077 14.1468 3.52942 14.4438 3.52942 14.7778C3.52942 15.4497 4.04907 15.9693 4.7172 15.9693H5.9087V18.5527C5.90498 18.5862 5.90498 18.6233 5.90498 18.6567V22.8139C5.90498 23.6342 6.5694 24.2986 7.38971 24.2986H7.9836C8.02815 24.2986 8.07269 24.2949 8.11723 24.2912C8.17291 24.2949 8.22859 24.2986 8.28426 24.2986H10.3592C11.1795 24.2986 11.8439 23.6342 11.8439 22.8139V19.5475C11.8439 18.8905 12.3747 18.3597 13.0317 18.3597H15.4072C16.0642 18.3597 16.595 18.8905 16.595 19.5475V22.8139C16.595 23.6342 17.2594 24.2986 18.0798 24.2986H20.1769C20.2289 24.2986 20.2809 24.2986 20.3328 24.2949C20.3737 24.2986 20.4145 24.2986 20.4553 24.2986H21.0492C21.8695 24.2986 22.5339 23.6342 22.5339 22.8139V22.2163C22.5451 22.1161 22.5525 22.0159 22.5525 21.9157L22.5515 21.6929C19.6707 21.2447 17.4661 18.7531 17.4661 15.7466C17.4661 13.4682 18.7322 11.4854 20.5993 10.4637Z" fill="black"/>
<path fill-rule="evenodd" clip-rule="evenodd" d="M28.2353 15.7466C28.2353 18.3706 26.1081 20.4977 23.4842 20.4977C20.8602 20.4977 18.733 18.3706 18.733 15.7466C18.733 13.1226 20.8602 10.9955 23.4842 10.9955C26.1081 10.9955 28.2353 13.1226 28.2353 15.7466ZM23.4842 18.5973C23.1343 18.5973 22.8507 18.3137 22.8507 17.9638V16.3801H21.267C20.9171 16.3801 20.6335 16.0965 20.6335 15.7466C20.6335 15.3967 20.9171 15.1131 21.267 15.1131H22.8507V13.5294C22.8507 13.1796 23.1343 12.8959 23.4842 12.8959C23.834 12.8959 24.1177 13.1796 24.1177 13.5294V15.1131H25.7014C26.0512 15.1131 26.3348 15.3967 26.3348 15.7466C26.3348 16.0965 26.0512 16.3801 25.7014 16.3801H24.1177V17.9638C24.1177 18.3137 23.834 18.5973 23.4842 18.5973Z" fill="black"/>
</svg>
